<svg width="84" height="81" viewBox="0 0 84 81" fill="none" xmlns="http://www.w3.org/2000/svg">
<g clip-path="url(#clip0_308_2604)">
<path d="M57.7499 17.9999H43.4999V23.2499C43.4999 26.9718 40.4718 29.9999 36.7499 29.9999C33.0281 29.9999 29.9999 26.9718 29.9999 23.2499V11.8499L23.9156 15.5062C22.1062 16.5843 20.9999 18.5437 20.9999 20.6437V25.078L13.4999 29.4093C12.0656 30.2343 11.5687 32.0718 12.4031 33.5062L19.9031 46.4999C20.7281 47.9343 22.5656 48.4218 23.9999 47.5968L33.6937 41.9999H46.4999C49.8093 41.9999 52.4999 39.3093 52.4999 35.9999H53.9999C55.6593 35.9999 56.9999 34.6593 56.9999 32.9999V26.9999H57.7499C58.9968 26.9999 59.9999 25.9968 59.9999 24.7499V20.2499C59.9999 19.003 58.9968 17.9999 57.7499 17.9999ZM71.5968 14.4937L64.0968 1.49993C63.2718 0.0655501 61.4343 -0.42195 59.9999 0.40305L50.3062 5.99993H40.7249C39.5999 5.99993 38.5031 6.31868 37.5468 6.9093L34.4062 8.86868C33.5249 9.41243 32.9999 10.378 32.9999 11.4093V23.2499C32.9999 25.3218 34.6781 26.9999 36.7499 26.9999C38.8218 26.9999 40.4999 25.3218 40.4999 23.2499V14.9999H57.7499C60.6468 14.9999 62.9999 17.3531 62.9999 20.2499V22.9218L70.4999 18.5905C71.9343 17.7562 72.4218 15.9281 71.5968 14.4937Z" fill="white"/>
</g>
<path d="M1.56333 73.484V71.66H7.92333V73.484H1.56333ZM6.63933 68.6H8.66733V77H6.63933V68.6ZM0.999328 68.6H3.02733V77H0.999328V68.6ZM13.0609 77.12C12.4209 77.12 11.8649 77.004 11.3929 76.772C10.9289 76.532 10.5689 76.196 10.3129 75.764C10.0569 75.332 9.92892 74.824 9.92892 74.24C9.92892 73.648 10.0529 73.136 10.3009 72.704C10.5489 72.272 10.9049 71.94 11.3689 71.708C11.8409 71.476 12.3969 71.36 13.0369 71.36C13.6769 71.36 14.2169 71.472 14.6569 71.696C15.0969 71.912 15.4329 72.228 15.6649 72.644C15.8969 73.06 16.0129 73.564 16.0129 74.156C16.0129 74.244 16.0129 74.332 16.0129 74.42C16.0129 74.5 16.0049 74.568 15.9889 74.624H10.9489V73.616H14.3569L13.9249 74.168C13.9649 74.112 13.9969 74.044 14.0209 73.964C14.0529 73.876 14.0689 73.804 14.0689 73.748C14.0689 73.508 14.0249 73.3 13.9369 73.124C13.8489 72.948 13.7249 72.812 13.5649 72.716C13.4049 72.62 13.2169 72.572 13.0009 72.572C12.7289 72.572 12.5009 72.632 12.3169 72.752C12.1329 72.872 11.9929 73.056 11.8969 73.304C11.8089 73.544 11.7609 73.848 11.7529 74.216C11.7529 74.552 11.8009 74.84 11.8969 75.08C11.9929 75.32 12.1369 75.504 12.3289 75.632C12.5209 75.752 12.7569 75.812 13.0369 75.812C13.3569 75.812 13.6289 75.752 13.8529 75.632C14.0849 75.512 14.2689 75.332 14.4049 75.092L16.0249 75.488C15.7369 76.032 15.3449 76.44 14.8489 76.712C14.3609 76.984 13.7649 77.12 13.0609 77.12ZM17.1318 67.64H18.9558V77H17.1318V67.64ZM22.1662 79.64H20.3542V71.48H22.1662V79.64ZM26.6782 74.24C26.6782 74.88 26.5502 75.42 26.2942 75.86C26.0462 76.3 25.7222 76.632 25.3222 76.856C24.9302 77.08 24.5062 77.192 24.0502 77.192C23.5702 77.192 23.1542 77.072 22.8022 76.832C22.4582 76.584 22.1942 76.24 22.0102 75.8C21.8262 75.352 21.7342 74.832 21.7342 74.24C21.7342 73.64 21.8262 73.12 22.0102 72.68C22.1942 72.24 22.4582 71.9 22.8022 71.66C23.1542 71.412 23.5702 71.288 24.0502 71.288C24.5062 71.288 24.9302 71.4 25.3222 71.624C25.7222 71.848 26.0462 72.18 26.2942 72.62C26.5502 73.052 26.6782 73.592 26.6782 74.24ZM24.7702 74.24C24.7702 73.952 24.7102 73.708 24.5902 73.508C24.4702 73.308 24.3102 73.156 24.1102 73.052C23.9102 72.948 23.6902 72.896 23.4502 72.896C23.2422 72.896 23.0382 72.948 22.8382 73.052C22.6462 73.148 22.4862 73.296 22.3582 73.496C22.2302 73.696 22.1662 73.944 22.1662 74.24C22.1662 74.536 22.2302 74.784 22.3582 74.984C22.4862 75.184 22.6462 75.336 22.8382 75.44C23.0382 75.536 23.2422 75.584 23.4502 75.584C23.6902 75.584 23.9102 75.532 24.1102 75.428C24.3102 75.324 24.4702 75.172 24.5902 74.972C24.7102 74.772 24.7702 74.528 24.7702 74.24ZM27.6645 69.404C27.6645 69.116 27.7685 68.884 27.9765 68.708C28.1845 68.524 28.4325 68.432 28.7205 68.432C29.0165 68.432 29.2645 68.524 29.4645 68.708C29.6725 68.884 29.7765 69.116 29.7765 69.404C29.7765 69.692 29.6725 69.928 29.4645 70.112C29.2645 70.296 29.0165 70.388 28.7205 70.388C28.4325 70.388 28.1845 70.296 27.9765 70.112C27.7685 69.928 27.6645 69.692 27.6645 69.404ZM27.8445 71.48H29.5965V77H27.8445V71.48ZM34.6769 73.64C34.6769 73.312 34.6129 73.06 34.4849 72.884C34.3649 72.708 34.1609 72.62 33.8729 72.62C33.6809 72.62 33.5129 72.66 33.3689 72.74C33.2249 72.82 33.1129 72.936 33.0329 73.088C32.9529 73.24 32.9129 73.424 32.9129 73.64V77H31.0889V71.48H32.9129V72.308C33.0729 72.004 33.2889 71.768 33.5609 71.6C33.8409 71.432 34.1849 71.348 34.5929 71.348C35.2809 71.348 35.7809 71.532 36.0929 71.9C36.4049 72.268 36.5609 72.784 36.5609 73.448V77H34.6769V73.64ZM37.7872 77.396H39.5392C39.5632 77.62 39.6272 77.808 39.7312 77.96C39.8432 78.112 39.9912 78.224 40.1752 78.296C40.3592 78.376 40.5672 78.416 40.7992 78.416C41.0552 78.416 41.2872 78.356 41.4952 78.236C41.7032 78.124 41.8672 77.952 41.9872 77.72C42.1152 77.496 42.1792 77.216 42.1792 76.88V71.48H43.9192V76.88C43.9192 77.584 43.7792 78.156 43.4992 78.596C43.2272 79.036 42.8632 79.356 42.4072 79.556C41.9512 79.764 41.4392 79.868 40.8712 79.868C40.1912 79.868 39.6272 79.764 39.1792 79.556C38.7392 79.348 38.4072 79.056 38.1832 78.68C37.9592 78.312 37.8272 77.884 37.7872 77.396ZM37.6672 74.168C37.6672 73.544 37.7912 73.024 38.0392 72.608C38.2952 72.192 38.6232 71.88 39.0232 71.672C39.4232 71.464 39.8472 71.36 40.2952 71.36C40.7592 71.36 41.1672 71.472 41.5192 71.696C41.8792 71.912 42.1632 72.228 42.3712 72.644C42.5792 73.06 42.6832 73.568 42.6832 74.168C42.6832 74.76 42.5792 75.268 42.3712 75.692C42.1632 76.108 41.8792 76.428 41.5192 76.652C41.1672 76.868 40.7592 76.976 40.2952 76.976C39.8472 76.976 39.4232 76.872 39.0232 76.664C38.6232 76.448 38.2952 76.132 38.0392 75.716C37.7912 75.3 37.6672 74.784 37.6672 74.168ZM39.5752 74.168C39.5752 74.448 39.6352 74.692 39.7552 74.9C39.8752 75.1 40.0352 75.252 40.2352 75.356C40.4352 75.46 40.6552 75.512 40.8952 75.512C41.1032 75.512 41.3032 75.464 41.4952 75.368C41.6952 75.264 41.8592 75.112 41.9872 74.912C42.1152 74.712 42.1792 74.464 42.1792 74.168C42.1792 73.944 42.1392 73.748 42.0592 73.58C41.9872 73.412 41.8872 73.272 41.7592 73.16C41.6392 73.048 41.5032 72.964 41.3512 72.908C41.1992 72.852 41.0472 72.824 40.8952 72.824C40.6552 72.824 40.4352 72.876 40.2352 72.98C40.0352 73.084 39.8752 73.236 39.7552 73.436C39.6352 73.636 39.5752 73.88 39.5752 74.168ZM49.6571 73.484V71.66H56.0171V73.484H49.6571ZM54.7331 68.6H56.7611V77H54.7331V68.6ZM49.0931 68.6H51.1211V77H49.0931V68.6ZM59.7507 75.272C59.7507 75.416 59.7867 75.54 59.8587 75.644C59.9307 75.74 60.0267 75.816 60.1467 75.872C60.2667 75.92 60.3987 75.944 60.5427 75.944C60.7507 75.944 60.9427 75.9 61.1187 75.812C61.2947 75.724 61.4387 75.592 61.5507 75.416C61.6627 75.24 61.7187 75.024 61.7187 74.768L61.9107 75.488C61.9107 75.84 61.8147 76.14 61.6227 76.388C61.4307 76.628 61.1827 76.812 60.8787 76.94C60.5747 77.06 60.2467 77.12 59.8947 77.12C59.5427 77.12 59.2147 77.056 58.9107 76.928C58.6147 76.792 58.3747 76.592 58.1907 76.328C58.0147 76.064 57.9267 75.744 57.9267 75.368C57.9267 74.84 58.1147 74.424 58.4907 74.12C58.8667 73.808 59.3987 73.652 60.0867 73.652C60.4227 73.652 60.7227 73.684 60.9867 73.748C61.2587 73.812 61.4907 73.892 61.6827 73.988C61.8747 74.084 62.0187 74.184 62.1147 74.288V75.092C61.9227 74.948 61.6987 74.84 61.4427 74.768C61.1947 74.688 60.9307 74.648 60.6507 74.648C60.4347 74.648 60.2627 74.672 60.1347 74.72C60.0067 74.768 59.9107 74.84 59.8467 74.936C59.7827 75.024 59.7507 75.136 59.7507 75.272ZM58.9467 73.172L58.3347 71.96C58.6467 71.808 59.0227 71.664 59.4627 71.528C59.9027 71.392 60.3827 71.324 60.9027 71.324C61.3907 71.324 61.8267 71.396 62.2107 71.54C62.5947 71.676 62.8987 71.876 63.1227 72.14C63.3467 72.404 63.4587 72.728 63.4587 73.112V77H61.7187V73.52C61.7187 73.384 61.6947 73.268 61.6467 73.172C61.6067 73.068 61.5427 72.98 61.4547 72.908C61.3667 72.836 61.2547 72.784 61.1187 72.752C60.9907 72.72 60.8427 72.704 60.6747 72.704C60.4267 72.704 60.1827 72.732 59.9427 72.788C59.7107 72.844 59.5067 72.912 59.3307 72.992C59.1547 73.064 59.0267 73.124 58.9467 73.172ZM68.4034 73.64C68.4034 73.312 68.3394 73.06 68.2114 72.884C68.0914 72.708 67.8874 72.62 67.5994 72.62C67.4074 72.62 67.2394 72.66 67.0954 72.74C66.9514 72.82 66.8394 72.936 66.7594 73.088C66.6794 73.24 66.6394 73.424 66.6394 73.64V77H64.8154V71.48H66.6394V72.308C66.7994 72.004 67.0154 71.768 67.2874 71.6C67.5674 71.432 67.9114 71.348 68.3194 71.348C69.0074 71.348 69.5074 71.532 69.8194 71.9C70.1314 72.268 70.2874 72.784 70.2874 73.448V77H68.4034V73.64ZM75.9058 67.64H77.7178V77H75.9058V67.64ZM71.3938 74.24C71.3938 73.616 71.5178 73.092 71.7658 72.668C72.0218 72.244 72.3498 71.92 72.7498 71.696C73.1498 71.472 73.5738 71.36 74.0218 71.36C74.4858 71.36 74.8938 71.476 75.2458 71.708C75.6058 71.94 75.8898 72.272 76.0978 72.704C76.3058 73.128 76.4098 73.64 76.4098 74.24C76.4098 74.832 76.3058 75.344 76.0978 75.776C75.8898 76.208 75.6058 76.54 75.2458 76.772C74.8938 77.004 74.4858 77.12 74.0218 77.12C73.5738 77.12 73.1498 77.008 72.7498 76.784C72.3498 76.56 72.0218 76.236 71.7658 75.812C71.5178 75.38 71.3938 74.856 71.3938 74.24ZM73.3018 74.24C73.3018 74.528 73.3618 74.78 73.4818 74.996C73.6018 75.204 73.7618 75.368 73.9618 75.488C74.1618 75.6 74.3818 75.656 74.6218 75.656C74.8298 75.656 75.0298 75.6 75.2218 75.488C75.4218 75.376 75.5858 75.216 75.7138 75.008C75.8418 74.792 75.9058 74.536 75.9058 74.24C75.9058 73.944 75.8418 73.692 75.7138 73.484C75.5858 73.268 75.4218 73.104 75.2218 72.992C75.0298 72.88 74.8298 72.824 74.6218 72.824C74.3818 72.824 74.1618 72.884 73.9618 73.004C73.7618 73.116 73.6018 73.28 73.4818 73.496C73.3618 73.704 73.3018 73.952 73.3018 74.24ZM79.424 74.996C79.704 75.228 79.956 75.412 80.18 75.548C80.412 75.676 80.616 75.768 80.792 75.824C80.968 75.872 81.12 75.896 81.248 75.896C81.432 75.896 81.568 75.856 81.656 75.776C81.744 75.696 81.788 75.592 81.788 75.464C81.788 75.344 81.752 75.244 81.68 75.164C81.608 75.076 81.484 74.992 81.308 74.912C81.14 74.832 80.908 74.748 80.612 74.66C80.348 74.564 80.096 74.452 79.856 74.324C79.624 74.188 79.432 74.008 79.28 73.784C79.128 73.56 79.052 73.272 79.052 72.92C79.052 72.584 79.14 72.3 79.316 72.068C79.5 71.836 79.744 71.66 80.048 71.54C80.36 71.42 80.716 71.36 81.116 71.36C81.436 71.36 81.732 71.396 82.004 71.468C82.284 71.54 82.544 71.636 82.784 71.756C83.032 71.876 83.264 72.016 83.48 72.176L82.832 73.352C82.6 73.136 82.336 72.96 82.04 72.824C81.744 72.68 81.472 72.608 81.224 72.608C81.056 72.608 80.928 72.64 80.84 72.704C80.76 72.768 80.72 72.852 80.72 72.956C80.72 73.076 80.768 73.176 80.864 73.256C80.968 73.336 81.112 73.412 81.296 73.484C81.488 73.548 81.72 73.632 81.992 73.736C82.28 73.84 82.544 73.96 82.784 74.096C83.032 74.232 83.228 74.404 83.372 74.612C83.524 74.82 83.6 75.096 83.6 75.44C83.6 76.032 83.416 76.48 83.048 76.784C82.688 77.08 82.18 77.228 81.524 77.228C81.124 77.228 80.752 77.18 80.408 77.084C80.072 76.996 79.76 76.876 79.472 76.724C79.184 76.564 78.916 76.388 78.668 76.196L79.424 74.996Z" fill="white"/>
<defs>
<clipPath id="clip0_308_2604">
<rect width="60" height="48" fill="white" transform="translate(12)"/>
</clipPath>
</defs>
</svg>
